<?xml version="1.0"?>
<svg xmlns="http://www.w3.org/2000/svg" xmlns:xlink="http://www.w3.org/1999/xlink" xmlns:svgjs="http://svgjs.com/svgjs" version="1.1" width="512" height="512" x="0" y="0" viewBox="0 0 569.16 569.16" style="enable-background:new 0 0 512 512" xml:space="preserve" class=""><g><link type="text/css" rel="stylesheet" id="dark-mode-custom-link"/><link type="text/css" rel="stylesheet" id="dark-mode-general-link"/><style lang="en" type="text/css" id="dark-mode-custom-style"/><style lang="en" type="text/css" id="dark-mode-native-style"/>
<g xmlns="http://www.w3.org/2000/svg">
	<g>
		<path d="M471.108,96.392H36.27c-20,0-36.27,16.227-36.27,36.172v304.033c0,19.945,16.27,36.172,36.27,36.172h434.838    c20,0,36.273-16.227,36.273-36.172V132.564C507.382,112.619,491.108,96.392,471.108,96.392z M377.619,302.409    c0,7.283-5.902,13.186-13.186,13.186h-79.731v79.734c0,7.283-5.903,13.186-13.183,13.186h-35.658    c-7.28,0-13.183-5.902-13.183-13.186v-79.734h-79.734c-7.283,0-13.183-5.902-13.183-13.186v-35.655    c0-7.283,5.903-13.183,13.183-13.183h79.734v-79.737c0-7.283,5.903-13.183,13.183-13.183h35.658    c7.283,0,13.183,5.903,13.183,13.183v79.734h79.734c7.283,0,13.186,5.903,13.186,13.183v35.658H377.619z" fill="#ffffff" data-original="#000000" style=""/>
		<path d="M532.89,174.893c0,0-1.609,0-3.592,0c-1.983,0-3.593,2.727-3.593,6.086v207.2c0,3.361,1.606,6.086,3.593,6.086h3.592    c20,0,36.271-16.229,36.271-36.172V211.068C569.16,191.123,552.89,174.893,532.89,174.893z" fill="#ffffff" data-original="#000000" style=""/>
	</g>
</g>
<g xmlns="http://www.w3.org/2000/svg">
</g>
<g xmlns="http://www.w3.org/2000/svg">
</g>
<g xmlns="http://www.w3.org/2000/svg">
</g>
<g xmlns="http://www.w3.org/2000/svg">
</g>
<g xmlns="http://www.w3.org/2000/svg">
</g>
<g xmlns="http://www.w3.org/2000/svg">
</g>
<g xmlns="http://www.w3.org/2000/svg">
</g>
<g xmlns="http://www.w3.org/2000/svg">
</g>
<g xmlns="http://www.w3.org/2000/svg">
</g>
<g xmlns="http://www.w3.org/2000/svg">
</g>
<g xmlns="http://www.w3.org/2000/svg">
</g>
<g xmlns="http://www.w3.org/2000/svg">
</g>
<g xmlns="http://www.w3.org/2000/svg">
</g>
<g xmlns="http://www.w3.org/2000/svg">
</g>
<g xmlns="http://www.w3.org/2000/svg">
</g>
</g></svg>
