<?xml version="1.0"?>
<svg xmlns="http://www.w3.org/2000/svg" xmlns:xlink="http://www.w3.org/1999/xlink" xmlns:svgjs="http://svgjs.com/svgjs" version="1.1" width="512" height="512" x="0" y="0" viewBox="0 0 569.16 569.16" style="enable-background:new 0 0 512 512" xml:space="preserve"><g><link type="text/css" rel="stylesheet" id="dark-mode-custom-link"/><link type="text/css" rel="stylesheet" id="dark-mode-general-link"/><style lang="en" type="text/css" id="dark-mode-custom-style"/><style lang="en" type="text/css" id="dark-mode-native-style"/>
<g xmlns="http://www.w3.org/2000/svg">
	<g>
		<path d="M471.108,96.392H36.27c-20,0-36.27,16.227-36.27,36.172v304.033c0,19.945,16.27,36.172,36.27,36.172h434.838    c20,0,36.273-16.227,36.273-36.172V132.564C507.382,112.619,491.108,96.392,471.108,96.392z M353.929,340.962    c5.15,5.15,5.15,13.498,0,18.645l-25.214,25.215c-5.15,5.15-13.498,5.15-18.645,0l-56.381-56.381l-56.38,56.381    c-5.15,5.15-13.498,5.15-18.645,0l-25.214-25.215c-5.15-5.15-5.15-13.498,0-18.645l56.381-56.381l-56.377-56.38    c-5.15-5.15-5.15-13.498,0-18.645l25.214-25.214c5.15-5.15,13.498-5.15,18.645,0l56.38,56.38l56.381-56.38    c5.149-5.15,13.497-5.15,18.645,0l25.214,25.214c5.15,5.15,5.15,13.498,0,18.645l-56.383,56.38L353.929,340.962z" fill="#ffffff" data-original="#000000" style=""/>
		<path d="M532.89,174.893c0,0-1.609,0-3.592,0c-1.983,0-3.593,2.727-3.593,6.086v207.2c0,3.361,1.606,6.086,3.593,6.086h3.592    c20,0,36.271-16.229,36.271-36.172V211.068C569.16,191.123,552.89,174.893,532.89,174.893z" fill="#ffffff" data-original="#000000" style=""/>
	</g>
</g>
<g xmlns="http://www.w3.org/2000/svg">
</g>
<g xmlns="http://www.w3.org/2000/svg">
</g>
<g xmlns="http://www.w3.org/2000/svg">
</g>
<g xmlns="http://www.w3.org/2000/svg">
</g>
<g xmlns="http://www.w3.org/2000/svg">
</g>
<g xmlns="http://www.w3.org/2000/svg">
</g>
<g xmlns="http://www.w3.org/2000/svg">
</g>
<g xmlns="http://www.w3.org/2000/svg">
</g>
<g xmlns="http://www.w3.org/2000/svg">
</g>
<g xmlns="http://www.w3.org/2000/svg">
</g>
<g xmlns="http://www.w3.org/2000/svg">
</g>
<g xmlns="http://www.w3.org/2000/svg">
</g>
<g xmlns="http://www.w3.org/2000/svg">
</g>
<g xmlns="http://www.w3.org/2000/svg">
</g>
<g xmlns="http://www.w3.org/2000/svg">
</g>
</g></svg>
