<?xml version="1.0"?>
<svg xmlns="http://www.w3.org/2000/svg" xmlns:xlink="http://www.w3.org/1999/xlink" xmlns:svgjs="http://svgjs.com/svgjs" version="1.1" width="512" height="512" x="0" y="0" viewBox="0 0 569.16 569.16" style="enable-background:new 0 0 512 512" xml:space="preserve" class=""><g><link type="text/css" rel="stylesheet" id="dark-mode-custom-link"/><link type="text/css" rel="stylesheet" id="dark-mode-general-link"/><style lang="en" type="text/css" id="dark-mode-custom-style"/><style lang="en" type="text/css" id="dark-mode-native-style"/>
<g xmlns="http://www.w3.org/2000/svg">
	<g>
		<path d="M471.108,96.392H36.27c-20,0-36.27,16.227-36.27,36.172v304.033c0,19.945,16.27,36.172,36.27,36.172h434.838    c20,0,36.273-16.227,36.273-36.172V132.564C507.382,112.619,491.108,96.392,471.108,96.392z M469.71,422.065    c0,11.459-9.314,20.746-20.802,20.746H53.544c-11.49,0-20.802-9.291-20.802-20.746v-274.97c0-11.459,9.314-20.747,20.802-20.747    h395.364c11.49,0,20.802,9.29,20.802,20.747V422.065z" fill="#ffffff" data-original="#000000" style="" class=""/>
		<path d="M532.89,174.893c0,0-1.609,0-3.592,0c-1.983,0-3.593,2.727-3.593,6.086v207.199c0,3.361,1.606,6.086,3.593,6.086h3.592    c20,0,36.271-16.227,36.271-36.172V211.065C569.16,191.12,552.89,174.893,532.89,174.893z" fill="#ffffff" data-original="#000000" style="" class=""/>
		<path d="M426.781,304.028l-186.568-91.436c-3.36-1.646-6.086-0.615-6.086,2.307v45.279c0,2.922-2.77,4.002-6.185,2.414    l-152.73-71.007c-3.415-1.588-3.889-1.175-1.056,0.924l220.821,163.642c2.834,2.1,5.077,1.434,5.013-1.49l-0.789-35.902    c-0.064-2.922,2.592-3.936,5.93-2.264l121.696,60.885c3.339,1.67,6.047,0.654,6.047-2.268v-62.811    C432.867,309.38,430.145,305.677,426.781,304.028z" fill="#ffffff" data-original="#000000" style="" class=""/>
	</g>
</g>
<g xmlns="http://www.w3.org/2000/svg">
</g>
<g xmlns="http://www.w3.org/2000/svg">
</g>
<g xmlns="http://www.w3.org/2000/svg">
</g>
<g xmlns="http://www.w3.org/2000/svg">
</g>
<g xmlns="http://www.w3.org/2000/svg">
</g>
<g xmlns="http://www.w3.org/2000/svg">
</g>
<g xmlns="http://www.w3.org/2000/svg">
</g>
<g xmlns="http://www.w3.org/2000/svg">
</g>
<g xmlns="http://www.w3.org/2000/svg">
</g>
<g xmlns="http://www.w3.org/2000/svg">
</g>
<g xmlns="http://www.w3.org/2000/svg">
</g>
<g xmlns="http://www.w3.org/2000/svg">
</g>
<g xmlns="http://www.w3.org/2000/svg">
</g>
<g xmlns="http://www.w3.org/2000/svg">
</g>
<g xmlns="http://www.w3.org/2000/svg">
</g>
</g></svg>
