<?xml version="1.0"?>
<svg xmlns="http://www.w3.org/2000/svg" xmlns:xlink="http://www.w3.org/1999/xlink" xmlns:svgjs="http://svgjs.com/svgjs" version="1.1" width="512" height="512" x="0" y="0" viewBox="0 0 64 64" style="enable-background:new 0 0 512 512" xml:space="preserve" class=""><g><link type="text/css" rel="stylesheet" id="dark-mode-custom-link"/><link type="text/css" rel="stylesheet" id="dark-mode-general-link"/><style lang="en" type="text/css" id="dark-mode-custom-style"/><style lang="en" type="text/css" id="dark-mode-native-style"/><path xmlns="http://www.w3.org/2000/svg" d="m52 11h-40a1 1 0 0 0 -1 1v31a1 1 0 0 0 1 1 8.009 8.009 0 0 1 8 8 1 1 0 0 0 1 1h31a1 1 0 0 0 1-1v-40a1 1 0 0 0 -1-1zm-1 40h-29.051a10.015 10.015 0 0 0 -8.949-8.949v-29.051h38z" fill="#ffffff" data-original="#000000" style="" class=""/><path xmlns="http://www.w3.org/2000/svg" d="m22 43h20a1 1 0 0 0 1-1v-20a1 1 0 0 0 -1-1h-20a1 1 0 0 0 -1 1v20a1 1 0 0 0 1 1zm1-20h18v18h-18z" fill="#ffffff" data-original="#000000" style="" class=""/><path xmlns="http://www.w3.org/2000/svg" d="m14 47a3 3 0 1 0 3 3 3 3 0 0 0 -3-3zm0 4a1 1 0 1 1 1-1 1 1 0 0 1 -1 1z" fill="#ffffff" data-original="#000000" style="" class=""/><path xmlns="http://www.w3.org/2000/svg" d="m61 21a1 1 0 0 0 0-2h-4v-4h4a1 1 0 0 0 0-2h-4v-1a5.006 5.006 0 0 0 -5-5h-1v-4a1 1 0 0 0 -2 0v4h-4v-4a1 1 0 0 0 -2 0v4h-4v-4a1 1 0 0 0 -2 0v4h-4v-4a1 1 0 0 0 -2 0v4h-4v-4a1 1 0 0 0 -2 0v4h-4v-4a1 1 0 0 0 -2 0v4h-4v-4a1 1 0 0 0 -2 0v4h-1a5.006 5.006 0 0 0 -5 5v1h-4a1 1 0 0 0 0 2h4v4h-4a1 1 0 0 0 0 2h4v4h-4a1 1 0 0 0 0 2h4v4h-4a1 1 0 0 0 0 2h4v4h-4a1 1 0 0 0 0 2h4v4h-4a1 1 0 0 0 0 2h4v4h-4a1 1 0 0 0 0 2h4v1a5.006 5.006 0 0 0 5 5h1v4a1 1 0 0 0 2 0v-4h4v4a1 1 0 0 0 2 0v-4h4v4a1 1 0 0 0 2 0v-4h4v4a1 1 0 0 0 2 0v-4h4v4a1 1 0 0 0 2 0v-4h4v4a1 1 0 0 0 2 0v-4h4v4a1 1 0 0 0 2 0v-4h1a5.006 5.006 0 0 0 5-5v-1h4a1 1 0 0 0 0-2h-4v-4h4a1 1 0 0 0 0-2h-4v-4h4a1 1 0 0 0 0-2h-4v-4h4a1 1 0 0 0 0-2h-4v-4h4a1 1 0 0 0 0-2h-4v-4zm-6 31a3 3 0 0 1 -3 3h-40a3 3 0 0 1 -3-3v-40a3 3 0 0 1 3-3h40a3 3 0 0 1 3 3z" fill="#ffffff" data-original="#000000" style="" class=""/></g></svg>
